#!OML:ASF F:\VICON\USERDATA\INSTALL\rory3\rory3.ASF
:FULLY-SPECIFIED
:DEGREES
46
root 0.42357417702518557 18.327458515167304 -7.565671809850004 13.526008404904974 -0.12234001598896505 -0.838336856892573
lfemur -26.620793759704128 8.241453442656686 -18.216112848828374
ltibia 40.637959767187276
lfoot 1.778989299018253 5.919296531089252
ltoes -20.554817375948897
rfemur -25.71159534216268 -6.611630684863663 19.54015360350044
rtibia 43.12155322952716
rfoot -3.2932722357175717 -9.11108907462064
rtoes 4.110183936753645
lowerback 6.733013288332585 0.7922650591315834 -2.20293152375424
upperback 1.9110842061253037 0.7330267074162218 2.3829709749996377
thorax -3.591711130960111 0.4072656790574757 3.2393822726164028
lowerneck -12.859336708743346 -0.27323260352744194 -2.613970472117796
upperneck 14.998010357266956 -0.09153811316406438 0.8463840754892453
head 6.161807819398298 -0.1309514046693428 0.7674323692584176
lclavicle -1.4635171379180185e-15 6.166405855329005e-16
lhumerus -13.04117223672183 -15.939518572432492 87.56096077625273
lradius 32.09757450794351
lwrist 25.032989303205397
lhand -25.074014382433305 -8.385179443705287
lfingers 7.125019999999999
lthumb 1.4400279598619798 21.575301212993928
rclavicle -1.4635171379180185e-15 6.166405855329005e-16
rhumerus -17.451163667872187 2.8900268130527085 -81.12017549518961
rradius 39.27506813174698
rwrist 28.907873252111045
rhand -18.215301551563645 -25.424366776769187
rfingers 7.125019999999999
rthumb 8.062361684814038 -55.20901767627074
47
root 0.43660825745741755 19.433574239064225 -5.567228871805364 11.721187058186066 0.25394982424548507 -0.7471180424597363
lfemur -23.142899597245176 7.87466273873858 -17.62808297139935
ltibia 36.866565427626966
lfoot 10.18879468444281 3.2997721072263153
ltoes -14.204718538011951
rfemur -22.0961753371561 -6.838609757087536 19.04946547908758
rtibia 39.52032712700269
rfoot 5.5854570902072105 -7.875623566869885
rtoes 12.230874345197986
lowerback 5.0756566748209675 0.45083134428234073 -2.344149397046659
upperback 2.403665803804955 0.28411602478544956 2.2800569336390533
thorax -1.6532182007670406 0.13395294645154004 3.2376864459200316
lowerneck -10.72449233312886 -0.3652636274854065 -2.669762516383099
upperneck 17.333207456921425 -0.2886972315395722 1.1578242845641515
head 6.568730819842559 -0.20251809420102876 0.8447898177305294
lclavicle -1.2231306282602656e-15 9.357599737099364e-16
lhumerus -12.908627259189418 -18.782058031668782 88.8602649191338
lradius 35.20536540275828
lwrist 27.938347610970716
lhand -25.15475396195728 -9.007964335401672
lfingers 7.125019999999999
lthumb 1.3620748509215748 20.96206745931835
rclavicle -1.2231306282602658e-15 9.357599737099364e-16
rhumerus -17.207317971930088 5.423010710808265 -81.8185906599729
rradius 40.85194530334459
rwrist 29.001635806728395
rhand -18.303706572840923 -25.020979416519648
rfingers 7.125019999999999
rthumb 7.977090401710919 -54.79376608201497
48
root 0.42622347457160487 20.291117952716874 -4.227879363611269 10.277955660204874 0.5465084287749603 -0.7809302603406194
lfemur -22.414626510022497 7.598208626757134 -17.493869820677073
ltibia 33.26830683888101
lfoot 15.108318928981534 1.5186092425504931
ltoes -9.24437018763118
rfemur -21.478162723440708 -6.8787939206445765 19.049608267027008
rtibia 36.362557085139834
rfoot 10.909005446550964 -6.984835154712035
rtoes 18.170499111735985
lowerback 4.112250542418527 0.11421789367696841 -2.5141556032789216
upperback 2.627554366238183 -0.16452747601015666 2.207699088556092
thorax -0.7118680544029092 -0.11964967174581641 3.251127605351833
lowerneck -9.77345458148619 -0.4467349305043497 -2.643301275870003
upperneck 18.867851555691274 -0.4908866019658665 1.3713353113799673
head 6.939795445203664 -0.2641800524894437 0.8890403963328738
lclavicle -1.3648284236897518e-15 7.472026928019283e-16
lhumerus -14.102647553469259 -19.88213079582184 89.74983645104005
lradius 36.54330322817623
lwrist 28.77500436447412
lhand -24.942219842770502 -9.255050841290384
lfingers 7.125019999999999
lthumb 1.5673068610612895 20.71945953051636
rclavicle -1.3648284236897518e-15 7.472026928019283e-16
rhumerus -17.816639139195836 5.263066478970545 -82.32555565757666
rradius 40.92047411355139
rwrist 29.225709164934358
rhand -18.41207925544942 -24.89415682636304
rfingers 7.125019999999999
rthumb 7.872543940407329 -54.66044041382966
49
root 0.42509879374759646 20.90551658737226 -2.476348622241747 9.247931298824348 0.9394256212106119 -0.794096526550544
lfemur -22.245957272646613 7.794387705447839 -17.647278302835048
ltibia 30.976057138440297
lfoot 17.547424446365454 0.10548126233600552
ltoes -7.660370597710861
rfemur -21.377348515835763 -7.088528719433383 19.32324749716924
rtibia 34.351679528169555
rfoot 13.739974235936796 -5.862684386398072
rtoes 19.80568958682745
lowerback 4.039365483298913 -0.1457732934539128 -2.6201114543781348
upperback 2.898934733011527 -0.5083873578630553 2.1850966252843156
thorax -0.1856165732120849 -0.3097221841025158 3.3119674556595005
lowerneck -9.461326751057253 -0.5039735045497528 -2.5816272536239016
upperneck 20.489172266849373 -0.6288908304190337 1.6097551021321066
head 7.528819859670929 -0.30039776829817094 0.9403090775170562
lclavicle -1.1768030734928374e-15 9.96880953299764e-16
lhumerus -14.24868114565936 -20.287547152324876 91.04682580963502
lradius 36.88668489835414
lwrist 29.422705289002966
lhand -24.595220964853656 -9.310401861405023
lfingers 7.125019999999999
lthumb 1.9023938852154787 20.66699105240035
rclavicle -1.1768030734928374e-15 9.96880953299764e-16
rhumerus -17.92357882783249 4.757162486619235 -82.83876856105047
rradius 40.605488565810106
rwrist 29.592661910017817
rhand -18.51455244894028 -24.81250707355425
rfingers 7.125019999999999
rthumb 7.773692366368255 -54.5756322759008
50
root 0.413709566788963 21.23171265237362 -0.7657649741387973 8.364235859272705 1.2150662281929594 -0.9107274029232294
lfemur -22.59674979196548 7.999960172208167 -17.842742658034243
ltibia 27.414242073559603
lfoot 18.566603494603008 -1.357860419404333
ltoes -7.6461139475969695
rfemur -21.846693412053288 -7.367158077664129 19.804370664806495
rtibia 30.680505488249384
rfoot 15.216902420135298 -4.654233515196028
rtoes 19.57591260382112
lowerback 3.927325655802711 -0.2555940555234331 -2.6747752229788704
upperback 3.076571283678403 -0.6564400602860478 2.1309441509558975
thorax 0.16105565300351232 -0.392614773976121 3.2965532544468936
lowerneck -9.411957161840014 -0.5933625214398414 -2.5060820737126823
upperneck 21.717618065720654 -0.8315807652443407 1.840968328962067
head 8.025412798958037 -0.3535967739839043 0.9799827118469404
lclavicle -1.2146680193761432e-15 9.468158650238546e-16
lhumerus -14.978079997511307 -20.195450740402517 91.80248543782233
lradius 35.88213875645877
lwrist 28.549281121127507
lhand -24.176929113114433 -9.13428781928969
lfingers 7.125019999999999
lthumb 2.3063210686504876 20.8437132552916
rclavicle -1.2146680193761434e-15 9.468158650238546e-16
rhumerus -18.46852414586152 3.3292751117692365 -83.21188338243553
rradius 39.02327472282066
rwrist 30.227709233153966
rhand -18.720419968394935 -24.922942828123116
rfingers 7.125019999999999
rthumb 7.575069117375434 -54.69072263440244
